<svg xmlns="http://www.w3.org/2000/svg" viewBox="0 0 800 1000" role="img" aria-label="Jar candle illustration">
  <defs>
    <linearGradient id="bg" x1="0" y1="0" x2="1" y2="1">
      <stop offset="0%" stop-color="#c9b196"/>
      <stop offset="50%" stop-color="#f2e6d6"/>
      <stop offset="100%" stop-color="#7b634e"/>
    </linearGradient>
    <linearGradient id="glass" x1="0" y1="0" x2="0" y2="1">
      <stop offset="0%" stop-color="#ffffff" stop-opacity="0.92"/>
      <stop offset="100%" stop-color="#d8d0c8" stop-opacity="0.75"/>
    </linearGradient>
    <radialGradient id="flame" cx="50%" cy="35%" r="65%">
      <stop offset="0%" stop-color="#fff8dd"/>
      <stop offset="45%" stop-color="#ffd36b"/>
      <stop offset="100%" stop-color="#ff8a1e" stop-opacity="0"/>
    </radialGradient>
  </defs>
  <rect width="800" height="1000" fill="url(#bg)"/>
  <rect x="0" y="0" width="800" height="1000" fill="#2a211d" opacity="0.16"/>
  <ellipse cx="580" cy="155" rx="150" ry="110" fill="#b9d0a1" opacity="0.18"/>
  <ellipse cx="590" cy="190" rx="95" ry="80" fill="#7c8b54" opacity="0.35"/>
  <ellipse cx="230" cy="820" rx="250" ry="60" fill="#000" opacity="0.28"/>
  <rect x="90" y="770" width="620" height="40" rx="20" fill="#2e241f" opacity="0.55"/>
  <rect x="215" y="170" width="370" height="450" rx="28" fill="url(#glass)" stroke="#8f857c" stroke-opacity="0.35" stroke-width="6"/>
  <rect x="245" y="205" width="310" height="22" rx="11" fill="#d7d0c9" opacity="0.9"/>
  <ellipse cx="400" cy="230" rx="150" ry="26" fill="#ece4dc"/>
  <ellipse cx="400" cy="226" rx="145" ry="20" fill="#c8beb4" opacity="0.55"/>
  <ellipse cx="400" cy="470" rx="148" ry="175" fill="#fff6ec" opacity="0.95"/>
  <rect x="255" y="310" width="290" height="220" rx="40" fill="#ffffff" opacity="0.18"/>
  <rect x="290" y="460" width="220" height="18" rx="9" fill="#d4c4b1" opacity="0.75"/>
  <rect x="322" y="502" width="156" height="18" rx="9" fill="#d4c4b1" opacity="0.75"/>
  <circle cx="400" cy="440" r="95" fill="url(#flame)"/>
  <path d="M400 315c-18 18-36 52-36 84 0 32 16 60 36 60s36-28 36-60c0-32-18-66-36-84Z" fill="#fff9dc"/>
  <path d="M400 330c-12 15-24 39-24 58 0 21 10 38 24 38s24-17 24-38c0-19-12-43-24-58Z" fill="#ffb33c"/>
  <path d="M400 350c-6 9-12 23-12 33 0 11 5 21 12 21s12-10 12-21c0-10-6-24-12-33Z" fill="#fff7e1"/>
  <rect x="386" y="260" width="28" height="56" rx="14" fill="#3d2c1f"/>
  <ellipse cx="400" cy="725" rx="120" ry="18" fill="#3b2b23" opacity="0.18"/>
  <circle cx="400" cy="732" r="105" fill="#b97e4c" opacity="0.16"/>
  <rect x="270" y="620" width="260" height="92" rx="46" fill="#f8f3ee" stroke="#d7cdc2" stroke-width="6"/>
  <text x="400" y="675" text-anchor="middle" font-family="Georgia, serif" font-size="28" fill="#7b6d64">NECHI</text>
</svg>
